<?xml version="1.0" encoding="utf-8"?>
<!-- Generator: Adobe Illustrator 27.5.0, SVG Export Plug-In . SVG Version: 6.00 Build 0)  -->
<svg version="1.1" id="Capa_1" xmlns="http://www.w3.org/2000/svg" xmlns:xlink="http://www.w3.org/1999/xlink" x="0px" y="0px"
	 viewBox="0 0 341.6 101.6" style="enable-background:new 0 0 341.6 101.6;" xml:space="preserve">
<style type="text/css">
	.st0{fill:#003A6A;}
</style>
<g id="LOGO_azul_CMKY">
	<g>
		<g>
			<path class="st0" d="M331.5,11.4h1.3V7.9h1.4l2.3,3.5h1.3l-2.4-3.6c1.2,0,2.2-1,2.3-2.2c0,0,0-0.1,0-0.1c0-1.7-1-2.5-2.9-2.5
				h-3.2V11.4z M332.8,6.7V4.2h1.7c0.9,0,1.8,0.1,1.8,1.2c0,1.3-1,1.3-2.2,1.3L332.8,6.7z M327.2,7.2c0,4,3.2,7.2,7.2,7.2
				c4,0,7.2-3.2,7.2-7.2c0-4-3.2-7.2-7.2-7.2C330.4,0,327.2,3.2,327.2,7.2C327.2,7.2,327.2,7.2,327.2,7.2 M334.4,13.2
				c-3.3,0.1-6-2.6-6.1-5.9c-0.1-3.3,2.6-6,5.9-6.1c3.3-0.1,6,2.6,6.1,5.9c0,0,0,0.1,0,0.1C340.3,10.4,337.7,13.1,334.4,13.2
				C334.4,13.2,334.4,13.2,334.4,13.2"/>
			<rect y="40.8" class="st0" width="29.9" height="7.2"/>
			<rect y="52.7" class="st0" width="29.9" height="7.2"/>
			<rect y="64.7" class="st0" width="29.9" height="7.3"/>
			<rect y="0" class="st0" width="29.9" height="36"/>
			<path class="st0" d="M181.7,36c0-22.5-18.1-36-39.1-36h-27.7v72h27.8C163.6,72,181.7,58.3,181.7,36 M157,36
				c0,9.2-7.4,16.6-16.6,16.6c-0.3,0-0.5,0-0.8,0V19.4h0.8C149.6,19.4,157,26.8,157,36"/>
			<path class="st0" d="M62.1,72V32.8c5.6,2.9,17.5,14.9,20.8,19.8V72h24.6V0H82.8v19.4C78.9,14.7,63.4,2.5,57.8,0H37.4v72H62.1z"/>
			<path class="st0" d="M302.8,32.8c2.2-2.5,18-17,21.5-32.8h-26.5c-0.8,2.4-1.9,4.7-3.4,6.8c-1.8,2.6-4.1,4.9-6.6,6.8
				c-2.5-2-4.7-4.3-6.6-6.8c-1.5-2.1-2.6-4.4-3.4-6.8h-26.5c3.4,15.8,19.3,30.3,21.5,32.8c-7.2,7.8-13,16.7-17.2,26.5
				c-1.7,4.1-3.1,8.4-4.2,12.7h26.5c2-7.1,5.4-13.6,9.9-19.4c4.6,5.7,7.9,12.3,9.9,19.4h26.5c-1.1-4.3-2.5-8.6-4.3-12.7
				C315.9,49.6,310,40.6,302.8,32.8"/>
			<polygon class="st0" points="213.9,52.6 213.9,43.8 228.9,43.8 228.9,28.2 213.9,28.2 213.9,19.4 243.9,19.4 243.9,0 189.2,0 
				189.2,72 243.9,72 243.9,52.6 			"/>
			<path class="st0" d="M21.8,101.4h2.7l-8.2-18.2h-2.6l-8.2,18.2h2.7l2-4.5h9.6L21.8,101.4z M11,94.8l3.9-8.9l3.9,8.9H11z
				 M50.6,83.3h-7.1v18.2h2.6v-5.5h4.5c4.7,0,7.6-2.4,7.6-6.3S55.3,83.3,50.6,83.3 M50.5,93.7h-4.4v-8.1h4.4c3.3,0,5.1,1.5,5.1,4.1
				S53.9,93.7,50.5,93.7 M69.3,99.2v-5.9h9.1v-2.2h-9.1v-5.6h10.2v-2.3H66.7v18.2h13.2v-2.3H69.3z M103.7,101.4l-4.3-6.1
				c2.5-0.8,4.1-3.1,4-5.7c0-3.9-2.9-6.3-7.6-6.3h-7.1v18.2h2.6v-5.5h4.5c0.4,0,0.8,0,1.1-0.1l3.9,5.6H103.7z M95.7,93.7h-4.4v-8.2
				h4.4c3.3,0,5.1,1.5,5.1,4.1S99,93.7,95.7,93.7 M125,85.5v-2.3h-12.8v18.2h2.6v-7.3h9.1v-2.2h-9.1v-6.3L125,85.5z M135.9,99.1
				v-5.9h9.1v-2.2H136v-5.6h10.2v-2.3h-12.8v18.2h13.2v-2.3H135.9z M163.5,101.6c2.6,0.1,5.1-0.9,6.9-2.9l-1.7-1.6
				c-1.3,1.4-3.2,2.2-5.1,2.2c-3.9,0-7-3.1-7-7s3.1-7,7-7c1.9,0,3.8,0.7,5.1,2.1l1.7-1.6c-1.8-1.9-4.3-2.9-6.9-2.8
				c-5.5,0-9.6,3.9-9.6,9.3S158,101.6,163.5,101.6 M182.2,101.4h2.6V85.5h6.2v-2.3h-15v2.3h6.2L182.2,101.4z M222.9,85.5v-2.3h-12.8
				v18.2h2.6V94h9.1v-2.2h-9.1v-6.3L222.9,85.5z M231.2,101.4h2.6V83.2h-2.5L231.2,101.4z M258.4,101.4l-6.9-9.4l6.4-8.8h-2.8l-5,7
				l-5.1-7h-3l6.4,8.9l-6.8,9.3h3l5.4-7.5l5.5,7.5H258.4z M265.5,101.4h2.6V83.2h-2.6V101.4z M291.2,83.2v13.6l-10.9-13.5h-2.1v18.2
				h2.6V87.8l10.9,13.5h2.1V83.2L291.2,83.2z M316.5,98.1c-1.3,0.8-2.7,1.2-4.2,1.2c-3.9,0-7-3.1-7-7s3.1-7,7-7c2,0,3.9,0.7,5.3,2.1
				l1.6-1.6c-1.8-1.9-4.4-2.9-7-2.8c-5.6,0-9.7,3.9-9.7,9.3s4.1,9.3,9.7,9.3c2.5,0.1,4.9-0.8,6.9-2.3v-7.1h-2.5L316.5,98.1z"/>
		</g>
	</g>
</g>
</svg>
