<svg id="longitud_anclaje" data-name="longitud anclaje" xmlns="http://www.w3.org/2000/svg" xmlns:xlink="http://www.w3.org/1999/xlink" width="132.274" height="125.722" viewBox="0 0 132.274 125.722">
  <defs>
    <clipPath id="clip-path">
      <rect id="Rectángulo_835" data-name="Rectángulo 835" width="132.274" height="125.722" fill="none"/>
    </clipPath>
  </defs>
  <rect id="Rectángulo_832" data-name="Rectángulo 832" width="25.232" height="106.413" transform="translate(5.231 19.309)" fill="#f2f2f2"/>
  <rect id="Rectángulo_833" data-name="Rectángulo 833" width="25.232" height="106.413" transform="translate(107.042 19.309)" fill="#f2f2f2"/>
  <rect id="Rectángulo_834" data-name="Rectángulo 834" width="72.216" height="106.413" transform="translate(32.644 19.309)" fill="#f2f2f2"/>
  <g id="Grupo_1246" data-name="Grupo 1246">
    <g id="Grupo_1245" data-name="Grupo 1245" clip-path="url(#clip-path)">
      <path id="Trazado_2578" data-name="Trazado 2578" d="M.575,72.7v.005q0,1.438.01,2.82c0,.395.008.774.011,1.162,0,.519.009,1.044.016,1.551.008.533.018,1.048.027,1.568.006.34.011.689.018,1.023.012.619.028,1.218.043,1.818.006.221.011.45.017.668.017.631.037,1.243.058,1.853,0,.175.01.357.016.53.023.661.049,1.3.075,1.94,0,.109.008.222.013.33.03.714.062,1.409.095,2.091,0,.022,0,.046,0,.068q.051,1.04.107,2.03l0,.041c.941,16.515,2.849,23.145,2.849,23.145h1.68l.841-7.4A10.847,10.847,0,0,0,9.315,106.1c.672-.84.84-3.362.84-3.362S12,89.8,13.349,86.518s2.857-3.781,2.857-3.781H21.08l4.874-2.942h98.577l2.605-2.6V67.841l-2.605-2.605H25.954L21.08,62.295H16.206a4.278,4.278,0,0,1-1.844-1.808,11.967,11.967,0,0,1-1.013-1.974,47.614,47.614,0,0,1-1.731-7.264c-.256-1.387-.5-2.791-.7-4.063-.453-2.756-.758-4.892-.758-4.892s-.023-.355-.088-.842a6.12,6.12,0,0,0-.752-2.52,3.734,3.734,0,0,0-.73-.643,15.8,15.8,0,0,0-2.127-1.206l-.446-3.92-.395-3.475H3.936s-.047.168-.129.5c-.01.043-.021.088-.033.137A90.826,90.826,0,0,0,2.1,40.713q-.156,1.365-.309,2.915c-.355,3.62-.68,8.016-.9,13.266Q.836,58.055.793,59.273.714,61.566.66,64.061q-.083,3.884-.085,8.27Z" fill="#fff"/>
      <path id="Trazado_2579" data-name="Trazado 2579" d="M.575,72.7v.005q0,1.438.01,2.82c0,.395.008.774.011,1.162,0,.519.009,1.044.016,1.551.008.533.018,1.048.027,1.568.006.34.011.689.018,1.023.012.619.028,1.218.043,1.818.006.221.011.45.017.668.017.631.037,1.243.058,1.853,0,.175.01.357.016.53.023.661.049,1.3.075,1.94,0,.109.008.222.013.33.03.714.062,1.409.095,2.091,0,.022,0,.046,0,.068q.051,1.04.107,2.03l0,.041c.941,16.515,2.849,23.145,2.849,23.145h1.68l.841-7.4A10.847,10.847,0,0,0,9.315,106.1c.672-.84.84-3.362.84-3.362S12,89.8,13.349,86.518s2.857-3.781,2.857-3.781H21.08l4.874-2.942h98.577l2.605-2.6V67.841l-2.605-2.605H25.954L21.08,62.295H16.206a4.278,4.278,0,0,1-1.844-1.808,11.967,11.967,0,0,1-1.013-1.974,47.614,47.614,0,0,1-1.731-7.264c-.256-1.387-.5-2.791-.7-4.063-.453-2.756-.758-4.892-.758-4.892s-.023-.355-.088-.842a6.12,6.12,0,0,0-.752-2.52,3.734,3.734,0,0,0-.73-.643,15.8,15.8,0,0,0-2.127-1.206l-.446-3.92-.395-3.475H3.936s-.047.168-.129.5c-.01.043-.021.088-.033.137A90.826,90.826,0,0,0,2.1,40.713q-.156,1.365-.309,2.915c-.355,3.62-.68,8.016-.9,13.266Q.836,58.055.793,59.273.714,61.566.66,64.061q-.083,3.884-.085,8.27Z" fill="#173c68"/>
    </g>
  </g>
  <g id="Grupo_1248" data-name="Grupo 1248">
    <g id="Grupo_1247" data-name="Grupo 1247" clip-path="url(#clip-path)">
      <path id="Trazado_2580" data-name="Trazado 2580" d="M132.05,4.513,127.76.223a.763.763,0,0,0-1.079,1.08l2.987,2.987H8.5L11.484,1.3A.763.763,0,0,0,10.4.223L6.116,4.513a.763.763,0,0,0,0,1.079L10.4,9.882A.763.763,0,0,0,11.484,8.8L8.5,5.815H129.668L126.681,8.8a.763.763,0,0,0,1.079,1.079l4.29-4.29a.763.763,0,0,0,0-1.079" fill="#4d4d4d" fill-rule="evenodd"/>
    </g>
  </g>
</svg>
