<svg id="máximo_espesor" data-name="máximo espesor" xmlns="http://www.w3.org/2000/svg" xmlns:xlink="http://www.w3.org/1999/xlink" width="132.274" height="126.297" viewBox="0 0 132.274 126.297">
  <defs>
    <clipPath id="clip-path">
      <rect id="Rectángulo_839" data-name="Rectángulo 839" width="132.274" height="126.297" fill="none"/>
    </clipPath>
  </defs>
  <rect id="Rectángulo_837" data-name="Rectángulo 837" width="25.232" height="106.413" transform="translate(4.656 19.309)" fill="#173c68"/>
  <g id="Grupo_1251" data-name="Grupo 1251">
    <g id="Grupo_1250" data-name="Grupo 1250" clip-path="url(#clip-path)">
      <rect id="Rectángulo_838" data-name="Rectángulo 838" width="25.232" height="106.413" transform="translate(4.655 19.309)" fill="none"/>
    </g>
  </g>
  <rect id="Rectángulo_840" data-name="Rectángulo 840" width="25.232" height="106.413" transform="translate(106.466 19.309)" fill="#173c68"/>
  <g id="Grupo_1253" data-name="Grupo 1253">
    <g id="Grupo_1252" data-name="Grupo 1252" clip-path="url(#clip-path)">
      <rect id="Rectángulo_841" data-name="Rectángulo 841" width="25.232" height="106.413" transform="translate(106.467 19.309)" fill="none"/>
    </g>
  </g>
  <rect id="Rectángulo_843" data-name="Rectángulo 843" width="68.566" height="106.413" transform="translate(33.894 19.309)" fill="#173c68"/>
  <g id="Grupo_1255" data-name="Grupo 1255">
    <g id="Grupo_1254" data-name="Grupo 1254" clip-path="url(#clip-path)">
      <rect id="Rectángulo_844" data-name="Rectángulo 844" width="68.567" height="106.413" transform="translate(33.893 19.309)" fill="none"/>
    </g>
  </g>
  <g id="Grupo_1257" data-name="Grupo 1257">
    <g id="Grupo_1256" data-name="Grupo 1256" clip-path="url(#clip-path)">
      <path id="Trazado_2581" data-name="Trazado 2581" d="M0,72.7v.005q0,1.438.01,2.82c0,.395.008.774.011,1.162.005.519.009,1.044.016,1.551.008.533.018,1.048.027,1.568.006.34.011.689.018,1.023.012.619.028,1.218.043,1.818.006.221.011.45.017.668.017.631.037,1.243.058,1.853,0,.175.01.357.016.53.023.661.049,1.3.075,1.94,0,.109.008.222.013.33.03.714.062,1.409.095,2.091,0,.022,0,.046,0,.068q.051,1.04.107,2.03l0,.041c.941,16.515,2.849,23.145,2.849,23.145h1.68l.841-7.4A10.847,10.847,0,0,0,8.74,106.1c.672-.84.84-3.362.84-3.362S11.429,89.8,12.774,86.518s2.857-3.781,2.857-3.781H20.5l4.874-2.942h98.577l2.6-2.6V67.841l-2.6-2.605H25.379L20.5,62.295H15.631a4.278,4.278,0,0,1-1.844-1.808,11.967,11.967,0,0,1-1.013-1.974,47.614,47.614,0,0,1-1.731-7.264c-.256-1.387-.5-2.791-.7-4.063-.453-2.756-.758-4.892-.758-4.892s-.023-.355-.088-.842a6.12,6.12,0,0,0-.752-2.52,3.734,3.734,0,0,0-.73-.643,15.8,15.8,0,0,0-2.127-1.206l-.446-3.92-.395-3.475H3.361s-.047.168-.129.5c-.01.043-.021.088-.033.137A90.826,90.826,0,0,0,1.523,40.713q-.156,1.365-.309,2.915c-.355,3.62-.68,8.016-.9,13.266Q.261,58.055.218,59.273.139,61.566.085,64.061,0,67.945,0,72.331Z" fill="#f2f2f2"/>
      <path id="Trazado_2582" data-name="Trazado 2582" d="M0,72.7v.005q0,1.438.01,2.82c0,.395.008.774.011,1.162.005.519.009,1.044.016,1.551.008.533.018,1.048.027,1.568.006.34.011.689.018,1.023.012.619.028,1.218.043,1.818.006.221.011.45.017.668.017.631.037,1.243.058,1.853,0,.175.01.357.016.53.023.661.049,1.3.075,1.94,0,.109.008.222.013.33.03.714.062,1.409.095,2.091,0,.022,0,.046,0,.068q.051,1.04.107,2.03l0,.041c.941,16.515,2.849,23.145,2.849,23.145h1.68l.841-7.4A10.847,10.847,0,0,0,8.74,106.1c.672-.84.84-3.362.84-3.362S11.429,89.8,12.774,86.518s2.857-3.781,2.857-3.781H20.5l4.874-2.942h98.577l2.6-2.6V67.841l-2.6-2.605H25.379L20.5,62.295H15.631a4.278,4.278,0,0,1-1.844-1.808,11.967,11.967,0,0,1-1.013-1.974,47.614,47.614,0,0,1-1.731-7.264c-.256-1.387-.5-2.791-.7-4.063-.453-2.756-.758-4.892-.758-4.892s-.023-.355-.088-.842a6.12,6.12,0,0,0-.752-2.52,3.734,3.734,0,0,0-.73-.643,15.8,15.8,0,0,0-2.127-1.206l-.446-3.92-.395-3.475H3.361s-.047.168-.129.5c-.01.043-.021.088-.033.137A90.826,90.826,0,0,0,1.523,40.713q-.156,1.365-.309,2.915c-.355,3.62-.68,8.016-.9,13.266Q.261,58.055.218,59.273.139,61.566.085,64.061,0,67.945,0,72.331Z" fill="#f2f2f2"/>
    </g>
  </g>
  <g id="Grupo_1259" data-name="Grupo 1259">
    <g id="Grupo_1258" data-name="Grupo 1258" clip-path="url(#clip-path)">
      <path id="Trazado_2583" data-name="Trazado 2583" d="M131.475,4.513l-4.29-4.29a.763.763,0,1,0-1.079,1.08l2.987,2.987H7.922L10.909,1.3A.763.763,0,1,0,9.83.223L5.541,4.513a.763.763,0,0,0,0,1.079L9.83,9.882A.763.763,0,0,0,10.909,8.8L7.922,5.815H129.093L126.106,8.8a.763.763,0,1,0,1.079,1.079l4.29-4.29a.763.763,0,0,0,0-1.079" fill="#4d4d4d" fill-rule="evenodd"/>
    </g>
  </g>
</svg>
